<svg xmlns="http://www.w3.org/2000/svg" style="display:none;">

  <!-- GitHub Icon -->
  <symbol id="icon-github" viewBox="0 0 128 128">
    <g fill="currentColor">
      <path fill-rule="evenodd" clip-rule="evenodd" d="M64 5.103c-33.347 0-60.388 27.035-60.388 60.388 0 26.682 17.303 49.317 41.297 57.303 3.017.56 4.125-1.31 4.125-2.905 0-1.44-.056-6.197-.082-11.243-16.8 3.653-20.345-7.125-20.345-7.125-2.747-6.98-6.705-8.836-6.705-8.836-5.48-3.748.413-3.67.413-3.67 6.063.425 9.257 6.223 9.257 6.223 5.386 9.23 14.127 6.562 17.573 5.02.542-3.903 2.107-6.568 3.834-8.076-13.413-1.525-27.514-6.704-27.514-29.843 0-6.593 2.36-11.98 6.223-16.21-.628-1.52-2.695-7.662.584-15.98 0 0 5.07-1.623 16.61 6.19C53.7 35 58.867 34.327 64 34.304c5.13.023 10.3.694 15.127 2.033 11.526-7.813 16.59-6.19 16.59-6.19 3.287 8.317 1.22 14.46.593 15.98 3.872 4.23 6.215 9.617 6.215 16.21 0 23.194-14.127 28.3-27.574 29.796 2.167 1.874 4.097 5.55 4.097 11.183 0 8.08-.07 14.583-.07 16.572 0 1.607 1.088 3.49 4.148 2.897 23.98-7.994 41.263-30.622 41.263-57.294C124.388 32.14 97.35 5.104 64 5.104z"></path>
      <path d="M26.484 91.806c-.133.3-.605.39-1.035.185-.44-.196-.685-.605-.543-.906.13-.31.603-.395 1.04-.188.44.197.69.61.537.91zm2.446 2.729c-.287.267-.85.143-1.232-.28-.396-.42-.47-.983-.177-1.254.298-.266.844-.14 1.24.28.394.426.472.984.17 1.255zM31.312 98.012c-.37.258-.976.017-1.35-.52-.37-.538-.37-1.183.01-1.44.373-.258.97-.025 1.35.507.368.545.368 1.19-.01 1.452zm3.261 3.361c-.33.365-1.036.267-1.552-.23-.527-.487-.674-1.18-.343-1.544.336-.366 1.045-.264 1.564.23.527.486.686 1.18.333 1.543zm4.5 1.951c-.147.473-.825.688-1.51.486-.683-.207-1.13-.76-.99-1.238.14-.477.823-.7 1.512-.485.683.206 1.13.756.988 1.237zm4.943.361c.017.498-.563.91-1.28.92-.723.017-1.308-.387-1.315-.877 0-.503.568-.91 1.29-.924.717-.013 1.306.387 1.306.88zm4.598-.782c.086.485-.413.984-1.126 1.117-.7.13-1.35-.172-1.44-.653-.086-.498.422-.997 1.122-1.126.714-.123 1.354.17 1.444.663zm0 0"></path>
    </g>
  </symbol>

  <!-- Dark Theme Icon -->
  <symbol id="icon-moon" viewBox="0 0 24 24">
    <g fill="none" stroke="currentColor" stroke-width="2" stroke-linecap="round" stroke-linejoin="round">
      <path d="M18 5h4"/>
      <path d="M20 3v4"/>
      <path d="M20.985 12.486a9 9 0 1 1-9.473-9.472c.405-.022.617.46.402.803a6 6 0 0 0 8.268 8.268c.344-.215.825-.004.803.401"/>
    </g>
  </symbol>

  <!-- Light Theme Icon -->
  <symbol id="icon-sun" viewBox="0 0 24 24">
    <g fill="none" stroke="currentColor" stroke-width="2" stroke-linecap="round" stroke-linejoin="round">
      <circle cx="12" cy="12" r="4"/>
      <path d="M12 2v2"/>
      <path d="M12 20v2"/>
      <path d="m4.93 4.93 1.41 1.41"/>
      <path d="m17.66 17.66 1.41 1.41"/>
      <path d="M2 12h2"/>
      <path d="M20 12h2"/>
      <path d="m6.34 17.66-1.41 1.41"/>
      <path d="m19.07 4.93-1.41 1.41"/>
    </g>
  </symbol>

  <!-- Logo -->
  <symbol id="icon-logo1" viewBox="0 0 24 24">
    <g fill="none" stroke="currentColor" stroke-width="2" stroke-linecap="round" stroke-linejoin="round">
      <path d="M17.596 12.768a2 2 0 1 0 2.829-2.829l-1.768-1.767a2 2 0 0 0 2.828-2.829l-2.828-2.828a2 2 0 0 0-2.829 2.828l-1.767-1.768a2 2 0 1 0-2.829 2.829z"/>
      <path d="m2.5 21.5 1.4-1.4"/>
      <path d="m20.1 3.9 1.4-1.4"/>
      <path d="M5.343 21.485a2 2 0 1 0 2.829-2.828l1.767 1.768a2 2 0 1 0 2.829-2.829l-6.364-6.364a2 2 0 1 0-2.829 2.829l1.768 1.767a2 2 0 0 0-2.828 2.829z"/>
      <path d="m9.6 14.4 4.8-4.8"/>
    </g>
  </symbol>
  <symbol id="icon-logo2" viewBox="0 0 24 24">
    <g fill="none" stroke="currentColor" stroke-width="2" stroke-linecap="round" stroke-linejoin="round">
      <path d="m9 18 6-6-6-6"/>
    </g>
  </symbol>

  <!-- Person Icon -->
  <symbol id="icon-person" viewBox="0 0 24 24">
    <g fill="none" stroke="currentColor" stroke-width="2" stroke-linecap="round" stroke-linejoin="round">
      <path d="M19 21v-2a4 4 0 0 0-4-4H9a4 4 0 0 0-4 4v2"/>
      <circle cx="12" cy="7" r="4"/>
    </g>
  </symbol>

  <!-- Projects Icon -->
  <symbol id="icon-project" viewBox="0 0 24 24">
    <g fill="none" stroke="currentColor" stroke-width="2" stroke-linecap="round" stroke-linejoin="round" class="lucide lucide-code-xml-icon lucide-code-xml">
      <path d="m18 16 4-4-4-4"/>
      <path d="m6 8-4 4 4 4"/>
      <path d="m14.5 4-5 16"/>
    </g>
  </symbol>

  <!-- Location Icon -->
  <symbol id="icon-location" viewBox="0 0 24 24">
    <g fill="none" stroke="currentColor" stroke-width="2" stroke-linecap="round" stroke-linejoin="round">
      <path d="M20 10c0 4.993-5.539 10.193-7.399 11.799a1 1 0 0 1-1.202 0C9.539 20.193 4 14.993 4 10a8 8 0 0 1 16 0"/>
      <circle cx="12" cy="10" r="3"/>
    </g>
  </symbol>

  <!-- Linkedin Icon -->
  <symbol id="icon-linkedin" viewBox="0 0 128 128">
    <path fill="#0076b2" d="M116 3H12a8.91 8.91 0 00-9 8.8v104.42a8.91 8.91 0 009 8.78h104a8.93 8.93 0 009-8.81V11.77A8.93 8.93 0 00116 3z"></path>
    <path fill="#fff" d="M21.06 48.73h18.11V107H21.06zm9.06-29a10.5 10.5 0 11-10.5 10.49 10.5 10.5 0 0110.5-10.49M50.53 48.73h17.36v8h.24c2.42-4.58 8.32-9.41 17.13-9.41C103.6 47.28 107 59.35 107 75v32H88.89V78.65c0-6.75-.12-15.44-9.41-15.44s-10.87 7.36-10.87 15V107H50.53z"></path>
  </symbol>

  <!-- External Link -->
  <symbol id="icon-external" viewBox="0 0 24 24">
    <g fill="none" stroke="currentColor" stroke-width="2" stroke-linecap="round" stroke-linejoin="round">
      <path d="M15 3h6v6"/>
      <path d="M10 14 21 3"/>
      <path d="M18 13v6a2 2 0 0 1-2 2H5a2 2 0 0 1-2-2V8a2 2 0 0 1 2-2h6"/>
    </g>
  </symbol>

  <!-- Accordion Icon -->
  <symbol id="icon-chevron-down" viewBox="0 0 24 24">
    <g fill="none" stroke="currentColor" stroke-width="2" stroke-linecap="round" stroke-linejoin="round">
      <path d="m6 9 6 6 6-6"/>
    </g>
  </symbol>

  <symbol id="icon-chevron-up" viewBox="0 0 24 24">
    <g fill="none" stroke="currentColor" stroke-width="2" stroke-linecap="round" stroke-linejoin="round">
      <path d="m18 15-6-6-6 6"/>
    </g>
  </symbol>

  <!-- Summary Icon -->
  <symbol id="icon-summary" viewBox="0 0 24 24">
    <g fill="none" stroke="currentColor" stroke-width="2" stroke-linecap="round" stroke-linejoin="round">
      <path d="M16 10h2"/>
      <path d="M16 14h2"/>
      <path d="M6.17 15a3 3 0 0 1 5.66 0"/>
      <circle cx="9" cy="11" r="2"/>
      <rect x="2" y="5" width="20" height="14" rx="2"/>
    </g>
  </symbol>

  <!-- Education Icon -->
  <symbol id="icon-education" viewBox="0 0 24 24">
    <g fill="none" stroke="currentColor" stroke-width="2" stroke-linecap="round" stroke-linejoin="round">
      <path d="M21.42 10.922a1 1 0 0 0-.019-1.838L12.83 5.18a2 2 0 0 0-1.66 0L2.6 9.08a1 1 0 0 0 0 1.832l8.57 3.908a2 2 0 0 0 1.66 0z"/>
      <path d="M22 10v6"/>
      <path d="M6 12.5V16a6 3 0 0 0 12 0v-3.5"/>
    </g>
  </symbol>

  <!-- Trash Icon -->
  <symbol id="icon-delete" viewBox="0 0 24 24">
    <g fill="none" stroke="currentColor" stroke-width="2" stroke-linecap="round" stroke-linejoin="round">
      <path d="M10 11v6"/>
      <path d="M14 11v6"/>
      <path d="M19 6v14a2 2 0 0 1-2 2H7a2 2 0 0 1-2-2V6"/>
      <path d="M3 6h18"/>
      <path d="M8 6V4a2 2 0 0 1 2-2h4a2 2 0 0 1 2 2v2"/>
    </g>
  </symbol>

  <!-- Work Icon -->
  <symbol id="icon-work" viewBox="0 0 24 24">
    <g fill="none" stroke="currentColor" stroke-width="2" stroke-linecap="round" stroke-linejoin="round">
      <path d="M12 12h.01"/>
      <path d="M16 6V4a2 2 0 0 0-2-2h-4a2 2 0 0 0-2 2v2"/>
      <path d="M22 13a18.15 18.15 0 0 1-20 0"/>
      <rect width="20" height="14" x="2" y="6" rx="2"/>
    </g>
  </symbol>

  <!-- Projects Icon -->
  <symbol id="icon-projects" viewBox="0 0 24 24">
    <g fill="none" stroke="currentColor" stroke-width="2" stroke-linecap="round" stroke-linejoin="round">
      <path d="m18 16 4-4-4-4"/>
      <path d="m6 8-4 4 4 4"/>
      <path d="m14.5 4-5 16"/>
    </g>
  </symbol>

  <!-- Technical Skills -->
  <symbol id="icon-skills" viewBox="0 0 24 24">
    <g fill="none" stroke="currentColor" stroke-width="2" stroke-linecap="round" stroke-linejoin="round">
      <polyline points="14.5 17.5 3 6 3 3 6 3 17.5 14.5"/>
      <line x1="13" x2="19" y1="19" y2="13"/>
      <line x1="16" x2="20" y1="16" y2="20"/>
      <line x1="19" x2="21" y1="21" y2="19"/>
      <polyline points="14.5 6.5 18 3 21 3 21 6 17.5 9.5"/>
      <line x1="5" x2="9" y1="14" y2="18"/>
      <line x1="7" x2="4" y1="17" y2="20"/>
      <line x1="3" x2="5" y1="19" y2="21"/>
    </g>
  </symbol>

  <!-- Download Icon -->
  <symbol id="icon-download" viewBox="0 0 24 24">
    <g fill="none" stroke="currentColor" stroke-width="2" stroke-linecap="round" stroke-linejoin="round">
      <path d="M12 15V3"/>
      <path d="M21 15v4a2 2 0 0 1-2 2H5a2 2 0 0 1-2-2v-4"/>
      <path d="m7 10 5 5 5-5"/>
    </g>
  </symbol>
</svg>
